<?xml version="1.0" standalone="no"?>
<!DOCTYPE svg PUBLIC "-//W3C//DTD SVG 20010904//EN"
 "http://www.w3.org/TR/2001/REC-SVG-20010904/DTD/svg10.dtd">
<svg version="1.0" xmlns="http://www.w3.org/2000/svg"
 width="1090.000000pt" height="1090.000000pt" viewBox="0 0 1090.000000 1090.000000"
 preserveAspectRatio="xMidYMid meet">
<metadata>
Created by potrace 1.11, written by Peter Selinger 2001-2013
</metadata>
<g transform="translate(0.000000,1090.000000) scale(0.100000,-0.100000)"
fill="#000000" stroke="none">
<path d="M10637 10829 c-21 -5 -50 -15 -65 -23 -37 -19 -502 -492 -580 -589
-127 -159 -185 -256 -278 -465 -116 -263 -202 -379 -347 -476 -96 -64 -118
-86 -184 -186 -77 -117 -476 -691 -581 -835 -154 -211 -285 -370 -488 -593
-55 -61 -143 -170 -195 -243 -293 -409 -345 -470 -578 -669 -450 -384 -1318
-1032 -1519 -1134 -122 -62 -176 -46 -332 97 -199 182 -1937 1922 -2064 2066
-143 162 -241 304 -347 501 -39 74 -125 232 -189 350 -65 118 -150 276 -189
350 -107 200 -168 285 -324 453 -264 285 -365 420 -484 642 -101 190 -151 222
-333 212 -114 -5 -177 -27 -286 -98 -192 -126 -351 -349 -384 -540 -10 -55 -8
-90 7 -205 25 -190 25 -660 0 -846 -26 -191 -62 -380 -108 -556 -39 -147 -42
-169 -49 -352 -8 -194 -68 -808 -115 -1180 -37 -287 -68 -462 -156 -885 -154
-738 -192 -978 -229 -1480 -6 -82 -27 -256 -46 -385 -127 -864 -133 -1184 -34
-1670 37 -184 45 -291 31 -407 -15 -126 -52 -246 -115 -377 -63 -130 -81 -204
-72 -299 8 -92 37 -168 93 -250 84 -123 220 -211 379 -244 83 -17 186 -14 985
29 255 13 347 8 455 -26 123 -40 208 -33 256 21 56 61 60 165 32 678 -9 160
-16 400 -16 535 -1 276 14 395 73 570 24 74 88 220 103 237 2 2 63 -23 137
-56 74 -32 179 -75 234 -96 152 -56 232 -102 306 -175 81 -80 117 -143 164
-285 78 -233 178 -387 330 -502 22 -17 90 -60 150 -96 118 -70 254 -169 443
-322 148 -121 195 -145 282 -145 58 0 78 5 156 44 193 94 302 216 334 371 27
138 33 161 48 190 19 39 339 496 546 780 88 121 189 261 224 310 36 50 76 103
91 118 31 35 91 67 124 67 22 0 29 -18 116 -307 52 -170 150 -478 218 -687
139 -422 154 -492 135 -623 -18 -130 3 -193 178 -543 98 -195 100 -199 137
-209 21 -5 101 -26 178 -45 106 -28 175 -53 285 -106 267 -128 449 -171 725
-171 178 0 302 15 495 61 97 23 174 33 348 45 444 30 625 15 892 -76 82 -28
109 -33 200 -33 100 -1 109 1 173 32 79 39 132 99 169 189 23 58 23 58 21 503
-2 348 -7 504 -24 715 -15 188 -20 308 -15 395 6 126 12 164 60 343 36 138 49
291 36 436 -12 145 -27 223 -97 521 -76 326 -81 374 -54 530 11 69 26 172 32
230 15 141 6 674 -16 900 -30 310 -15 693 49 1222 14 112 34 300 46 418 20
205 60 440 175 1035 99 513 157 839 210 1186 79 520 81 530 133 679 41 121 46
145 46 225 0 50 -8 137 -18 195 -31 180 -6 359 83 579 53 133 58 172 32 246
-30 84 -85 164 -126 181 -38 16 -62 16 -118 3z"/>
</g>
</svg>
